<svg width="20" height="12" viewBox="0 0 20 12" fill="none" xmlns="http://www.w3.org/2000/svg">
<path d="M2.4987 11.8332C2.04036 11.8332 1.64814 11.6701 1.32203 11.344C0.99592 11.0179 0.832587 10.6254 0.832031 10.1665V1.83317C0.832031 1.37484 0.995365 0.982615 1.32203 0.656504C1.6487 0.330393 2.04092 0.167059 2.4987 0.166504H10.832C11.2904 0.166504 11.6829 0.329837 12.0095 0.656504C12.3362 0.98317 12.4993 1.37539 12.4987 1.83317V10.1665C12.4987 10.6248 12.3356 11.0173 12.0095 11.344C11.6834 11.6707 11.2909 11.8337 10.832 11.8332H2.4987ZM2.4987 10.1665H10.832V1.83317H2.4987V10.1665ZM14.1654 11.8332V0.166504H15.832V11.8332H14.1654ZM17.4987 11.8332V0.166504H19.1654V11.8332H17.4987Z" fill="#7B43EA"/>
</svg>
